<?xml version="1.0" encoding="utf-8"?>
<!-- Generator: Adobe Illustrator 21.0.0, SVG Export Plug-In . SVG Version: 6.00 Build 0)  -->
<svg version="1.1" id="Logo" xmlns="http://www.w3.org/2000/svg" xmlns:xlink="http://www.w3.org/1999/xlink" x="0px" y="0px"
	 viewBox="0 0 250 35" style="enable-background:new 0 0 250 35;" xml:space="preserve">
<style type="text/css">
	.st0{enable-background:new    ;}
</style>
<g id="Layer_2">
	<g class="st0">
		<path d="M42.7,0c1.1,0,2.1,0.1,3.1,0.3c1,0.2,1.9,0.6,2.6,1s1.4,1.1,1.8,1.9c0.5,0.8,0.7,1.8,0.7,3c0,0.7-0.1,1.3-0.3,2
			c-0.2,0.6-0.5,1.2-0.9,1.7c-0.4,0.5-0.9,1-1.4,1.3c-0.5,0.4-1.1,0.6-1.8,0.8v0.1c1.7,0.2,3,0.9,4,2c1,1.1,1.5,2.6,1.5,4.2
			c0,0.4,0,0.9-0.1,1.4c-0.1,0.5-0.2,1-0.4,1.6c-0.2,0.5-0.5,1.1-0.9,1.6c-0.4,0.5-1,1-1.6,1.4c-0.7,0.4-1.5,0.7-2.5,1
			c-1,0.3-2.2,0.4-3.6,0.4H31.8V0H42.7z M42.7,11.3c1,0,1.8-0.1,2.6-0.3c0.7-0.2,1.3-0.5,1.8-0.9c0.5-0.4,0.8-0.9,1.1-1.4
			c0.2-0.5,0.4-1.1,0.4-1.7c0-3.2-1.9-4.8-5.8-4.8h-8.4v9.2H42.7z M42.7,23.6c0.9,0,1.8-0.1,2.6-0.2c0.8-0.2,1.5-0.4,2.2-0.8
			s1.1-1,1.5-1.6c0.4-0.7,0.5-1.5,0.5-2.6c0-1.7-0.6-2.9-1.7-3.7c-1.2-0.8-2.8-1.2-5-1.2h-8.4v10.3H42.7z"/>
		<path d="M57.7,0v3.6h-2.3V0H57.7z M57.7,7.1v18.6h-2.3V7.1H57.7z"/>
		<path d="M64.4,0v10.7h0.1c0.2-0.7,0.6-1.3,1-1.8c0.4-0.5,1-0.9,1.5-1.3c0.6-0.3,1.2-0.6,1.9-0.8c0.7-0.2,1.3-0.3,2-0.3
			c1.4,0,2.6,0.3,3.7,0.8c1,0.5,1.9,1.2,2.6,2.1c0.7,0.9,1.2,1.9,1.5,3.1c0.3,1.2,0.5,2.4,0.5,3.8c0,1.3-0.2,2.6-0.5,3.8
			c-0.3,1.2-0.9,2.2-1.5,3.1c-0.7,0.9-1.6,1.6-2.6,2.1c-1,0.5-2.3,0.8-3.7,0.8c-1.5,0-2.9-0.3-4-1c-1.2-0.7-2-1.7-2.6-3h-0.1v3.5
			h-2.1V0H64.4z M76.6,13.6c-0.2-0.9-0.6-1.8-1.1-2.5c-0.5-0.7-1.1-1.3-1.9-1.8s-1.7-0.7-2.8-0.7c-1.2,0-2.2,0.2-3,0.7
			c-0.8,0.5-1.5,1.1-2,1.8c-0.5,0.7-0.9,1.6-1.1,2.5c-0.2,0.9-0.3,1.9-0.3,2.9s0.1,1.9,0.3,2.9c0.2,0.9,0.6,1.8,1.1,2.5
			c0.5,0.7,1.2,1.3,2,1.8c0.8,0.5,1.8,0.7,3,0.7c1.1,0,2-0.2,2.8-0.7c0.8-0.5,1.4-1.1,1.9-1.8c0.5-0.7,0.9-1.6,1.1-2.5
			c0.2-0.9,0.3-1.9,0.3-2.9S76.8,14.5,76.6,13.6z"/>
		<path d="M85,0v25.7h-2.3V0H85z"/>
		<path d="M91.7,0v3.6h-2.3V0H91.7z M91.7,7.1v18.6h-2.3V7.1H91.7z"/>
		<path d="M107.7,7.4c1.1,0.5,2,1.2,2.8,2.1c0.7,0.9,1.3,1.9,1.7,3.1c0.4,1.2,0.6,2.5,0.6,3.8c0,1.3-0.2,2.6-0.6,3.8
			c-0.4,1.2-0.9,2.2-1.7,3.1c-0.7,0.9-1.7,1.6-2.8,2.1c-1.1,0.5-2.3,0.8-3.8,0.8s-2.7-0.3-3.8-0.8c-1.1-0.5-2-1.2-2.8-2.1
			c-0.7-0.9-1.3-1.9-1.7-3.1c-0.4-1.2-0.6-2.5-0.6-3.8c0-1.3,0.2-2.6,0.6-3.8c0.4-1.2,0.9-2.2,1.7-3.1c0.7-0.9,1.7-1.6,2.8-2.1
			c1.1-0.5,2.3-0.8,3.8-0.8S106.6,6.9,107.7,7.4z M101.1,9.2c-0.8,0.5-1.5,1.1-2,1.8s-0.9,1.6-1.2,2.5s-0.4,1.9-0.4,2.9
			c0,1,0.1,2,0.4,2.9s0.7,1.8,1.2,2.5s1.2,1.3,2,1.8c0.8,0.5,1.8,0.7,2.8,0.7c1.1,0,2-0.2,2.8-0.7c0.8-0.5,1.5-1.1,2-1.8
			c0.5-0.7,0.9-1.6,1.2-2.5s0.4-1.9,0.4-2.9c0-1-0.1-1.9-0.4-2.9s-0.7-1.8-1.2-2.5c-0.5-0.7-1.2-1.3-2-1.8c-0.8-0.5-1.8-0.7-2.8-0.7
			C102.8,8.5,101.9,8.7,101.1,9.2z"/>
		<path d="M123.5,7.1V9h-3.8v12.5c0,0.7,0.1,1.3,0.3,1.7c0.2,0.4,0.7,0.7,1.5,0.7c0.6,0,1.3,0,1.9-0.1v1.9c-0.3,0-0.7,0-1,0
			c-0.3,0-0.7,0-1,0c-1.5,0-2.6-0.3-3.2-0.9c-0.6-0.6-0.9-1.7-0.9-3.3V9h-3.2V7.1h3.2V1.5h2.3v5.6H123.5z"/>
		<path d="M128.4,19.6c0.2,0.9,0.6,1.7,1.1,2.4c0.5,0.7,1.1,1.3,1.9,1.7c0.8,0.5,1.7,0.7,2.8,0.7c1.7,0,3-0.4,3.9-1.3
			c0.9-0.9,1.6-2,1.9-3.5h2.3c-0.5,2.1-1.4,3.7-2.6,4.9c-1.3,1.2-3.1,1.7-5.5,1.7c-1.5,0-2.7-0.3-3.8-0.8c-1.1-0.5-1.9-1.2-2.6-2.1
			c-0.7-0.9-1.2-1.9-1.5-3.1c-0.3-1.2-0.5-2.4-0.5-3.8c0-1.2,0.2-2.4,0.5-3.6s0.8-2.2,1.5-3.2c0.7-0.9,1.5-1.7,2.6-2.2
			c1.1-0.6,2.3-0.8,3.8-0.8c1.5,0,2.8,0.3,3.8,0.9c1.1,0.6,1.9,1.4,2.6,2.4c0.7,1,1.1,2.1,1.4,3.3c0.3,1.3,0.4,2.5,0.4,3.8h-14.3
			C128.1,17.8,128.2,18.7,128.4,19.6z M139.6,12.6c-0.3-0.8-0.7-1.5-1.2-2.1s-1.1-1.1-1.8-1.5c-0.7-0.4-1.5-0.6-2.4-0.6
			c-0.9,0-1.8,0.2-2.5,0.6c-0.7,0.4-1.3,0.9-1.8,1.5s-0.9,1.3-1.2,2.1c-0.3,0.8-0.5,1.6-0.6,2.5h12
			C140.1,14.3,139.9,13.4,139.6,12.6z"/>
		<path d="M147.7,0v16.1l10.3-9h3l-7.9,6.9l8.5,11.7h-2.8l-7.3-10.1l-3.7,3.1v7.1h-2.3V0H147.7z"/>
		<path d="M174.1,10.7c-0.3-0.5-0.6-0.9-1.1-1.3c-0.4-0.3-1-0.6-1.5-0.7c-0.6-0.2-1.2-0.2-1.8-0.2c-0.5,0-1,0.1-1.5,0.2
			c-0.5,0.1-1,0.3-1.4,0.5s-0.8,0.6-1,1c-0.3,0.4-0.4,0.9-0.4,1.5c0,0.5,0.1,0.9,0.4,1.3s0.6,0.6,1,0.9c0.4,0.2,0.8,0.4,1.3,0.6
			c0.5,0.2,0.9,0.3,1.3,0.4l3,0.7c0.6,0.1,1.3,0.3,1.9,0.5s1.2,0.6,1.7,1c0.5,0.4,0.9,0.9,1.2,1.5c0.3,0.6,0.5,1.3,0.5,2.1
			c0,1-0.2,1.9-0.7,2.6c-0.5,0.7-1,1.3-1.7,1.7c-0.7,0.4-1.5,0.8-2.4,1c-0.9,0.2-1.8,0.3-2.6,0.3c-2.2,0-4-0.5-5.3-1.5
			c-1.4-1-2.1-2.7-2.3-5h2.3c0.1,1.5,0.7,2.7,1.7,3.5c1,0.8,2.3,1.2,3.8,1.2c0.6,0,1.1-0.1,1.7-0.2s1.1-0.3,1.6-0.6s0.9-0.7,1.2-1.1
			s0.5-1,0.5-1.6c0-0.6-0.1-1-0.3-1.4c-0.2-0.4-0.5-0.7-0.9-0.9s-0.8-0.5-1.3-0.6c-0.5-0.2-1-0.3-1.5-0.4l-2.9-0.6
			c-0.7-0.2-1.4-0.4-2.1-0.7c-0.6-0.3-1.2-0.6-1.6-0.9c-0.5-0.4-0.8-0.8-1.1-1.4c-0.3-0.5-0.4-1.2-0.4-2c0-0.9,0.2-1.7,0.6-2.4
			s1-1.2,1.6-1.6s1.4-0.7,2.2-0.9c0.8-0.2,1.6-0.3,2.5-0.3c0.9,0,1.8,0.1,2.6,0.4c0.8,0.2,1.5,0.6,2.1,1.1c0.6,0.5,1.1,1.1,1.5,1.9
			c0.4,0.7,0.6,1.6,0.6,2.6h-2.3C174.5,11.9,174.4,11.3,174.1,10.7z"/>
		<path d="M183,0v25.7h-2.3V0H183z"/>
		<path d="M199,7.4c1.1,0.5,2,1.2,2.8,2.1c0.7,0.9,1.3,1.9,1.7,3.1c0.4,1.2,0.6,2.5,0.6,3.8c0,1.3-0.2,2.6-0.6,3.8
			c-0.4,1.2-0.9,2.2-1.7,3.1s-1.7,1.6-2.8,2.1c-1.1,0.5-2.3,0.8-3.8,0.8s-2.7-0.3-3.8-0.8c-1.1-0.5-2-1.2-2.8-2.1s-1.3-1.9-1.7-3.1
			c-0.4-1.2-0.6-2.5-0.6-3.8c0-1.3,0.2-2.6,0.6-3.8c0.4-1.2,0.9-2.2,1.7-3.1c0.7-0.9,1.7-1.6,2.8-2.1c1.1-0.5,2.3-0.8,3.8-0.8
			S197.9,6.9,199,7.4z M192.4,9.2c-0.8,0.5-1.5,1.1-2,1.8s-0.9,1.6-1.2,2.5c-0.3,0.9-0.4,1.9-0.4,2.9c0,1,0.1,2,0.4,2.9
			c0.3,0.9,0.7,1.8,1.2,2.5s1.2,1.3,2,1.8c0.8,0.5,1.8,0.7,2.8,0.7s2-0.2,2.8-0.7s1.5-1.1,2-1.8c0.5-0.7,0.9-1.6,1.2-2.5
			c0.3-0.9,0.4-1.9,0.4-2.9c0-1-0.1-1.9-0.4-2.9c-0.3-0.9-0.7-1.8-1.2-2.5c-0.5-0.7-1.2-1.3-2-1.8c-0.8-0.5-1.8-0.7-2.8-0.7
			S193.2,8.7,192.4,9.2z"/>
		<path d="M222.7,27.9c-0.3,1.1-0.8,2-1.4,2.8c-0.6,0.8-1.5,1.4-2.5,1.8c-1,0.4-2.3,0.6-3.8,0.6c-0.9,0-1.8-0.1-2.7-0.3
			c-0.9-0.2-1.7-0.6-2.4-1c-0.7-0.5-1.3-1-1.8-1.7s-0.7-1.6-0.8-2.5h2.3c0.1,0.7,0.4,1.3,0.7,1.7c0.3,0.5,0.8,0.8,1.3,1.1
			c0.5,0.3,1,0.5,1.6,0.6c0.6,0.1,1.2,0.2,1.8,0.2c2.1,0,3.6-0.6,4.6-1.8c0.9-1.2,1.4-2.9,1.4-5.2v-2.5h-0.1
			c-0.5,1.2-1.3,2.1-2.3,2.8c-1,0.7-2.2,1-3.6,1c-1.5,0-2.8-0.2-3.8-0.7c-1.1-0.5-1.9-1.2-2.6-2c-0.7-0.9-1.2-1.9-1.5-3
			c-0.3-1.2-0.5-2.4-0.5-3.7c0-1.3,0.2-2.5,0.6-3.6c0.4-1.1,0.9-2.1,1.6-3c0.7-0.9,1.6-1.5,2.6-2c1-0.5,2.2-0.7,3.6-0.7
			c0.7,0,1.4,0.1,2,0.3c0.6,0.2,1.2,0.5,1.7,0.8s1,0.8,1.3,1.2c0.4,0.5,0.7,0.9,0.9,1.4h0.1V7.1h2.3v17.1
			C223.1,25.6,223,26.8,222.7,27.9z M217.5,23c0.7-0.4,1.4-1,1.9-1.7c0.5-0.7,0.9-1.5,1.1-2.4s0.4-1.8,0.4-2.7
			c0-0.9-0.1-1.8-0.3-2.7c-0.2-0.9-0.6-1.7-1-2.5c-0.5-0.7-1.1-1.3-1.9-1.8c-0.8-0.5-1.7-0.7-2.8-0.7c-1.1,0-2,0.2-2.8,0.7
			c-0.8,0.4-1.4,1-1.9,1.7s-0.9,1.5-1.1,2.5s-0.3,1.9-0.3,2.8c0,0.9,0.1,1.8,0.4,2.7s0.6,1.7,1.1,2.4c0.5,0.7,1.1,1.2,1.9,1.7
			s1.7,0.6,2.7,0.6C215.8,23.6,216.7,23.4,217.5,23z"/>
		<path d="M229.7,0v3.6h-2.3V0H229.7z M229.7,7.1v18.6h-2.3V7.1H229.7z"/>
		<path d="M236.3,7.1v3.2h0.1c0.4-1.1,1.2-2,2.3-2.7c1.1-0.7,2.3-1,3.6-1c1.3,0,2.4,0.2,3.3,0.5c0.9,0.3,1.6,0.8,2.1,1.4
			c0.5,0.6,0.9,1.4,1.1,2.2c0.2,0.9,0.3,1.9,0.3,3v12h-2.3V14.1c0-0.8-0.1-1.5-0.2-2.2c-0.1-0.7-0.4-1.3-0.8-1.8
			c-0.4-0.5-0.8-0.9-1.5-1.2c-0.6-0.3-1.4-0.4-2.3-0.4s-1.7,0.2-2.4,0.5c-0.7,0.3-1.3,0.8-1.8,1.3c-0.5,0.6-0.9,1.2-1.2,2
			c-0.3,0.8-0.4,1.6-0.5,2.5v10.8h-2.3V7.1H236.3z"/>
	</g>
	<path d="M17.1,11.1h-1.7V7.7c0-3.3-2.7-6-6-6s-6,2.7-6,6v3.4H1.7V7.7C1.7,3.4,5.1,0,9.4,0s7.7,3.4,7.7,7.7
		C17.1,7.7,17.1,11.1,17.1,11.1z"/>
	<path d="M16.3,25.7H2.6c-1.5,0-2.6-1.1-2.6-2.6V12.8c0-1.5,1.1-2.6,2.6-2.6h13.7c1.5,0,2.6,1.1,2.6,2.6v10.3
		C18.8,24.6,17.7,25.7,16.3,25.7z M2.6,12c-0.5,0-0.9,0.3-0.9,0.9v10.3c0,0.5,0.3,0.9,0.9,0.9h13.7c0.5,0,0.9-0.3,0.9-0.9V12.8
		c0-0.5-0.3-0.9-0.9-0.9L2.6,12L2.6,12z"/>
	<circle cx="9.4" cy="15.4" r="1.7"/>
	<path d="M9.8,15.4H9l-0.9,5.1h2.6L9.8,15.4z"/>
</g>
</svg>
